<svg width="144" height="30" viewBox="0 0 144 30" fill="none" xmlns="http://www.w3.org/2000/svg">
<path d="M49.1364 5.25586V6.23429H41.1558V13.4847H49.1364V14.4631H41.1558V21.7135H49.1364V22.692H40.1486V5.25586H49.1364Z" fill="white"/>
<path d="M61.6756 20.1331L62.7474 20.5094C62.5537 20.7728 62.3342 21.0237 62.0888 21.262C60.8879 22.4286 59.4286 23.0182 57.724 23.0182C56.0194 23.0182 54.5731 22.4286 53.3721 21.262C52.1712 20.0954 51.5642 18.678 51.5642 17.0222C51.5642 15.3664 52.1712 13.9614 53.3721 12.7949C54.5731 11.6283 56.0323 11.0387 57.724 11.0387C59.4286 11.0387 60.8879 11.6283 62.0888 12.7949C62.3342 13.0332 62.5537 13.2841 62.7474 13.5349L61.6756 13.9113C61.5594 13.7858 61.4431 13.6478 61.314 13.5224C60.3197 12.5691 59.1187 12.0798 57.7111 12.0798C56.3164 12.0798 55.1155 12.5565 54.1211 13.5224C53.1268 14.4883 52.6231 15.6549 52.6231 17.0222C52.6231 18.3895 53.1268 19.556 54.1211 20.5219C55.1155 21.4878 56.3164 21.977 57.7111 21.977C59.1187 21.977 60.3197 21.4878 61.314 20.5219C61.4431 20.3965 61.5723 20.2711 61.6756 20.1331Z" fill="white"/>
<path d="M70.9347 11.0261C72.6393 11.0261 74.0985 11.6157 75.2995 12.7823C76.5005 13.9489 77.1074 15.3663 77.1074 17.0221C77.1074 18.6779 76.5005 20.0829 75.2995 21.2495C74.0985 22.416 72.6393 23.0056 70.9347 23.0056C69.2301 23.0056 67.7837 22.416 66.5828 21.2495C65.3818 20.0829 64.7749 18.6654 64.7749 17.0221C64.7749 15.3663 65.3818 13.9489 66.5828 12.7823C67.7837 11.6157 69.2301 11.0261 70.9347 11.0261ZM67.3318 13.5224C66.3374 14.4883 65.8338 15.6548 65.8338 17.0221C65.8338 18.3894 66.3374 19.556 67.3318 20.5219C68.3261 21.4878 69.5271 21.9645 70.9347 21.9645C72.3423 21.9645 73.5432 21.4878 74.5376 20.5219C75.5319 19.556 76.0356 18.3894 76.0356 17.0221C76.0356 15.6548 75.5319 14.4883 74.5376 13.5224C73.5432 12.5565 72.3423 12.0673 70.9347 12.0673C69.5271 12.0673 68.3261 12.5565 67.3318 13.5224Z" fill="white"/>
<path d="M95.0315 20.3212C93.1849 22.0397 91.067 22.8927 88.6909 22.8927C86.1469 22.8927 83.9903 22.0272 82.1954 20.2835C80.4133 18.5525 79.5093 16.4451 79.5093 13.9865C79.5093 11.5279 80.4004 9.42047 82.1954 7.67686C83.9903 5.93325 86.1469 5.05518 88.6909 5.05518C91.067 5.05518 93.314 5.99597 95.4447 7.87757L93.7014 9.42047C92.1001 8.04064 90.4343 7.35072 88.6909 7.35072C86.8055 7.35072 85.2042 8.00301 83.8612 9.29503C82.5182 10.5871 81.8596 12.1551 81.8596 13.9865C81.8596 15.8304 82.5311 17.3984 83.8612 18.6905C85.1913 19.9825 86.8055 20.6348 88.6909 20.6348C90.3051 20.6348 91.6481 20.2208 92.7071 19.3929V14.1245H95.0315V20.3212V20.3212Z" fill="#8BC53F"/>
<path d="M100.856 12.9955C101.721 11.854 102.793 11.2519 104.058 11.1892V13.5349C103.206 13.5726 102.534 13.8485 102.031 14.3377C101.269 15.0653 100.881 15.9308 100.856 16.9344V22.7046H98.5311V11.4777H100.856V12.9955V12.9955Z" fill="#8BC53F"/>
<path d="M109.869 20.1707C110.257 20.5094 110.967 20.6725 111.987 20.6725C113.098 20.6725 114.04 20.2961 114.828 19.5435C114.931 19.4431 115.125 19.2174 115.422 18.8661L117.747 19.6689C117.178 20.4341 116.765 20.9359 116.507 21.1868C115.254 22.4035 113.743 23.0056 111.974 23.0056C110.218 23.0056 108.707 22.4035 107.454 21.1868C106.202 19.97 105.582 18.5023 105.582 16.7838C105.582 15.0653 106.202 13.5977 107.454 12.3809C108.707 11.1641 110.205 10.562 111.974 10.562C113.485 10.562 114.815 11.0011 115.952 11.8917C116.132 12.0422 116.326 12.2053 116.507 12.3809C116.584 12.4562 116.791 12.6819 117.153 13.0708L115.99 14.2123L109.869 20.1707ZM113.743 13.1837C113.485 12.983 112.891 12.8826 111.974 12.8826C110.877 12.8826 109.934 13.259 109.146 14.0242C108.358 14.7893 107.971 15.705 107.971 16.7838C107.971 17.6619 108.074 18.2389 108.268 18.5023L113.743 13.1837Z" fill="#8BC53F"/>
<path d="M124.036 20.1707C124.423 20.5094 125.133 20.6725 126.153 20.6725C127.264 20.6725 128.207 20.2961 128.994 19.5435C129.098 19.4431 129.291 19.2174 129.588 18.8661L131.913 19.6689C131.345 20.4341 130.931 20.9359 130.673 21.1868C129.421 22.4035 127.91 23.0056 126.14 23.0056C124.384 23.0056 122.873 22.4035 121.621 21.1868C120.368 19.97 119.748 18.5023 119.748 16.7838C119.748 15.0653 120.368 13.5977 121.621 12.3809C122.873 11.1641 124.371 10.562 126.14 10.562C127.651 10.562 128.981 11.0011 130.118 11.8917C130.312 12.0422 130.492 12.2053 130.673 12.3809C130.751 12.4562 130.957 12.6819 131.319 13.0708L130.157 14.2123L124.036 20.1707ZM127.923 13.1837C127.664 12.983 127.07 12.8826 126.153 12.8826C125.056 12.8826 124.113 13.259 123.325 14.0242C122.538 14.7893 122.15 15.705 122.15 16.7838C122.15 17.6619 122.253 18.2389 122.447 18.5023L127.923 13.1837Z" fill="#8BC53F"/>
<path d="M136.949 14.5008V22.7171H134.612V11.4903H136.949V12.7948C137.44 11.5154 138.408 10.8756 139.881 10.8756C141.133 10.8756 142.128 11.3021 142.864 12.1676C143.6 13.0332 143.987 14.112 144 15.4165V22.7171H141.676V15.5043C141.676 14.8521 141.43 14.3001 140.939 13.836C140.449 13.3719 139.868 13.1461 139.196 13.1461C138.525 13.1461 137.956 13.3719 137.466 13.8234C137.207 14.0869 137.04 14.3127 136.949 14.5008Z" fill="#8BC53F"/>
<path d="M11.5836 28.7131C-1.43335 20.4466 2.2083 3.24884 2.15664 0.765137C-0.464826 6.94931 0.0388051 13.3216 0.0388051 14.99C0.0388051 22.0899 5.11386 28.0357 11.9323 29.5912C11.816 29.3277 11.6353 28.8511 11.5836 28.7131Z" fill="url(#paint0_linear_3_518)"/>
<path d="M23.929 2.44604C24.6651 12.3558 10.3051 19.2173 13.172 27.9228C17.1364 24.8119 23.1542 19.3302 24.8975 13.7105C24.0065 17.3734 21.54 23.8711 14.6958 29.98C23.5674 30.4191 30.9282 23.545 30.9282 15.0026C30.9153 9.74663 28.1389 5.11791 23.929 2.44604Z" fill="url(#paint1_linear_3_518)"/>
<path d="M15.4835 0C12.2809 0 9.41411 1.40492 7.7999 2.30808C5.28174 0.765177 3.95164 0.765177 2.87981 0.48921C3.8225 1.5429 14.7345 6.94935 11.7256 14.3879C10.2406 18.0508 10.628 21.6509 10.628 24.0719C6.04365 18.4773 5.21717 13.4095 5.21717 13.4095C5.10095 18.8661 8.91047 24.4482 11.1704 27.2204C10.5376 14.3879 23.1026 7.3633 23.3867 2.09484C21.0622 0.765176 18.3633 0 15.4835 0Z" fill="url(#paint2_linear_3_518)"/>
<defs>
<linearGradient id="paint0_linear_3_518" x1="5.96607" y1="-1.50479" x2="5.96607" y2="30.809" gradientUnits="userSpaceOnUse">
<stop stop-color="#D6DE23"/>
<stop offset="0.1005" stop-color="#CFD923"/>
<stop offset="0.2431" stop-color="#BDCB22"/>
<stop offset="0.4107" stop-color="#9EB521"/>
<stop offset="0.5974" stop-color="#749520"/>
<stop offset="0.7987" stop-color="#3E6E1E"/>
<stop offset="1" stop-color="#00401C"/>
</linearGradient>
<linearGradient id="paint1_linear_3_518" x1="21.8561" y1="-1.50471" x2="21.8561" y2="30.8091" gradientUnits="userSpaceOnUse">
<stop stop-color="#D6DE23"/>
<stop offset="0.1005" stop-color="#CFD923"/>
<stop offset="0.2431" stop-color="#BDCB22"/>
<stop offset="0.4107" stop-color="#9EB521"/>
<stop offset="0.5974" stop-color="#749520"/>
<stop offset="0.7987" stop-color="#3E6E1E"/>
<stop offset="1" stop-color="#00401C"/>
</linearGradient>
<linearGradient id="paint2_linear_3_518" x1="13.1235" y1="-1.50479" x2="13.1235" y2="30.8091" gradientUnits="userSpaceOnUse">
<stop stop-color="#D6DE23"/>
<stop offset="0.1005" stop-color="#CFD923"/>
<stop offset="0.2431" stop-color="#BDCB22"/>
<stop offset="0.4107" stop-color="#9EB521"/>
<stop offset="0.5974" stop-color="#749520"/>
<stop offset="0.7987" stop-color="#3E6E1E"/>
<stop offset="1" stop-color="#00401C"/>
</linearGradient>
</defs>
</svg>
