<svg width="19" height="12" viewBox="0 0 19 12" fill="none" xmlns="http://www.w3.org/2000/svg">
<path d="M0.772938 12V0.559999H4.45294C5.7756 0.559999 6.81027 0.858666 7.55694 1.456C8.31427 2.04267 8.69294 2.92267 8.69294 4.096V4.16C8.69294 5.32267 8.31427 6.19733 7.55694 6.784C6.7996 7.36 5.78094 7.648 4.50094 7.648H2.90094V12H0.772938ZM2.90094 6.112H4.45294C5.15694 6.112 5.69027 5.94667 6.05294 5.616C6.42627 5.27467 6.61294 4.78933 6.61294 4.16V4.096C6.61294 2.83733 5.89294 2.208 4.45294 2.208H2.90094V6.112ZM12.8109 12V2.24H9.62694V0.559999H18.1389V2.24H14.9549V12H12.8109Z" fill="white"/>
</svg>
