<svg width="48" height="48" viewBox="0 0 48 48" fill="none" xmlns="http://www.w3.org/2000/svg">
<path d="M10.5827 31V20.74L7.86266 22.42V19L11.1427 16.7H14.6827V31H10.5827ZM22.7866 31.24C20.9466 31.24 19.4932 30.8733 18.4266 30.14C17.3599 29.3933 16.8266 28.3333 16.8266 26.96C16.8266 26.1333 17.0466 25.42 17.4866 24.82C17.9399 24.2067 18.5866 23.7533 19.4266 23.46C18.0932 22.86 17.4266 21.8733 17.4266 20.5C17.4266 19.26 17.9399 18.2867 18.9666 17.58C20.0066 16.86 21.2932 16.5 22.8266 16.5C24.3999 16.5 25.6932 16.8533 26.7066 17.56C27.7199 18.2667 28.2266 19.24 28.2266 20.48C28.2266 21.84 27.5532 22.8267 26.2066 23.44C27.9132 24.0267 28.7666 25.1667 28.7666 26.86C28.7666 28.2333 28.2266 29.3067 27.1466 30.08C26.0666 30.8533 24.6132 31.24 22.7866 31.24ZM21.4066 27.88C21.7666 28.2 22.2332 28.36 22.8066 28.36C23.3799 28.36 23.8466 28.2 24.2066 27.88C24.5666 27.5467 24.7466 27.1 24.7466 26.54C24.7466 25.98 24.5666 25.54 24.2066 25.22C23.8599 24.8867 23.3999 24.72 22.8266 24.72C22.2532 24.72 21.7799 24.8867 21.4066 25.22C21.0466 25.54 20.8666 25.98 20.8666 26.54C20.8666 27.1 21.0466 27.5467 21.4066 27.88ZM21.6266 21.98C21.9599 22.26 22.3666 22.4 22.8466 22.4C23.3266 22.4 23.7266 22.26 24.0466 21.98C24.3666 21.6867 24.5266 21.3 24.5266 20.82C24.5266 20.3533 24.3599 19.98 24.0266 19.7C23.7066 19.4067 23.3066 19.26 22.8266 19.26C22.3466 19.26 21.9466 19.4067 21.6266 19.7C21.3066 19.98 21.1466 20.3533 21.1466 20.82C21.1466 21.3 21.3066 21.6867 21.6266 21.98ZM33.6311 29.34V25.5H30.1111V22.9H33.6311V19.06H36.5111V22.9H40.0311V25.5H36.5111V29.34H33.6311Z" fill="#6B7280"/>
<circle cx="24" cy="24" r="23" stroke="#6B7280" stroke-width="2"/>
</svg>
