<svg width="14" height="12" viewBox="0 0 14 12" fill="none" xmlns="http://www.w3.org/2000/svg">
<path d="M13 5H0.96875C0.4375 5 0 5.46875 0 6C0 6.5625 0.4375 7 0.96875 7H12.9688C13.5312 7 14 6.5625 14 6C14 5.46875 13.5312 5 13 5ZM13 10H0.96875C0.4375 10 0 10.4688 0 11C0 11.5 0.4375 12 0.96875 12H12.9688C13.5312 12 14 11.5625 14 11C14 10.4688 13.5312 10 13 10ZM13 0H0.96875C0.4375 0 0 0.46875 0 1C0 1.5 0.4375 2 0.96875 2H12.9688C13.5312 2 14 1.5625 14 1C14 0.46875 13.5312 0 13 0Z" fill="white"/>
</svg>
