<svg width="16" height="13" viewBox="0 0 16 13" fill="none" xmlns="http://www.w3.org/2000/svg">
<path d="M8 3.25C6.05859 3.25 4.5 4.83594 4.5 6.75C4.5 8.69141 6.05859 10.25 8 10.25C9.91406 10.25 11.5 8.69141 11.5 6.77734C11.5 4.83594 9.91406 3.25 8 3.25ZM8 9.375C6.55078 9.375 5.375 8.19922 5.375 6.75C5.375 5.32812 6.55078 4.125 8 4.125C9.42188 4.125 10.625 5.32812 10.625 6.77734C10.625 8.19922 9.42188 9.375 8 9.375ZM15.7656 6.28516C14.2891 2.92188 11.3359 0.625 8 0.625C4.63672 0.625 1.68359 2.92188 0.207031 6.28516C0.152344 6.42188 0.125 6.61328 0.125 6.75C0.125 6.88672 0.152344 7.10547 0.207031 7.24219C1.68359 10.6055 4.63672 12.875 8 12.875C11.3359 12.875 14.2891 10.6055 15.7656 7.24219C15.8203 7.10547 15.875 6.88672 15.875 6.75C15.875 6.61328 15.8203 6.42188 15.7656 6.28516ZM14.9727 6.88672C13.5781 10.0312 10.8984 12 8 12C5.07422 12 2.39453 10.0586 1.02734 6.88672C1 6.85938 1 6.77734 0.972656 6.77734C0.972656 6.75 0.972656 6.66797 0.972656 6.64062C2.39453 3.46875 5.07422 1.5 8 1.5C10.8984 1.5 13.5781 3.46875 14.9727 6.64062C14.9727 6.66797 14.9727 6.75 14.9727 6.75C14.9727 6.77734 14.9727 6.85938 14.9727 6.88672Z" fill="#6B7280"/>
</svg>
